<?xml version="1.0" encoding="UTF-8" standalone="no"?>
<svg
   xmlns:dc="http://purl.org/dc/elements/1.1/"
   xmlns:cc="http://creativecommons.org/ns#"
   xmlns:rdf="http://www.w3.org/1999/02/22-rdf-syntax-ns#"
   xmlns:svg="http://www.w3.org/2000/svg"
   xmlns="http://www.w3.org/2000/svg"
   xmlns:sodipodi="http://sodipodi.sourceforge.net/DTD/sodipodi-0.dtd"
   xmlns:inkscape="http://www.inkscape.org/namespaces/inkscape"
   width="512"
   height="470"
   viewBox="0 0 512 470"
   version="1.1"
   id="svg8"
   sodipodi:docname="boot1.svg"
   inkscape:version="0.92.1 r15371">
  <metadata
     id="metadata14">
    <rdf:RDF>
      <cc:Work
         rdf:about="">
        <dc:format>image/svg+xml</dc:format>
        <dc:type
           rdf:resource="http://purl.org/dc/dcmitype/StillImage" />
        <dc:title></dc:title>
      </cc:Work>
    </rdf:RDF>
  </metadata>
  <defs
     id="defs12" />
  <sodipodi:namedview
     pagecolor="#ffffff"
     bordercolor="#666666"
     borderopacity="1"
     objecttolerance="10"
     gridtolerance="10"
     guidetolerance="10"
     inkscape:pageopacity="0"
     inkscape:pageshadow="2"
     inkscape:window-width="1366"
     inkscape:window-height="706"
     id="namedview10"
     showgrid="false"
     inkscape:zoom="0.32593203"
     inkscape:cx="129.08886"
     inkscape:cy="598.12273"
     inkscape:window-x="-8"
     inkscape:window-y="-8"
     inkscape:window-maximized="1"
     inkscape:current-layer="svg8" />
  <path
     d="M 256.52641,0.51305402 V 469.11305 c 26.6,-14.1 52.9,-30.7 79.4,-45.8 l 98.4,-57.6 34.6,-289.099986 c -70.8,-25.4 -141.6,-50.70001 -212.4,-76.10000998 z"
     id="path2"
     inkscape:connector-curvature="0"
     style="fill:#0143a3" />
  <path
     d="M 256.52641,0.51305402 V 469.11305 c -26.6,-14.1 -52.9,-30.7 -79.4,-45.8 -32.8,-19.2 -65.6,-38.4 -98.400004,-57.6 l -34.6,-289.099986 c 70.800004,-25.4 141.600004,-50.70001 212.400004,-76.10000998 z"
     id="path4"
     inkscape:connector-curvature="0"
     style="fill:#0273d4" />
  <path
     d="m 208.02641,198.91305 h 69.8 q 15.4,0 25.6,-8.6 10.3,-8.9 10.3,-25.3 0,-18.5 -9.2,-26 -9.2,-7.6 -26.7,-7.6 h -69.7 v 67.6 z m -42.8,-102.499996 h 118.6 q 32.8,0 52.6,15.099996 19.8,15.1 19.8,45.6 0,18.5 -9.2,31.9 -8.9,13.1 -25.6,20.2 v 0.7 q 22.5,4.8 34.2,21.6 11.6,16.5 11.6,41.5 0,14.4 -5.1,27.1 -5.1,12.4 -16.1,21.6 -10.9,8.9 -28,14.4 -17.1,5.2 -40.7,5.2 h -112.1 V 96.513054 Z m 42.8,209.899996 h 75.6 q 19.5,0 30.1,-10 10.9,-10.3 10.9,-28.7 0,-18.2 -10.9,-27.8 -10.6,-10 -30.1,-10 h -75.6 z"
     id="path6"
     inkscape:connector-curvature="0"
     style="fill:#ffffff" />
</svg>
