<?xml version="1.0" encoding="UTF-8" standalone="no"?>
<!-- Created with Inkscape (http://www.inkscape.org/) -->

<svg
   xmlns:dc="http://purl.org/dc/elements/1.1/"
   xmlns:cc="http://creativecommons.org/ns#"
   xmlns:rdf="http://www.w3.org/1999/02/22-rdf-syntax-ns#"
   xmlns:svg="http://www.w3.org/2000/svg"
   xmlns="http://www.w3.org/2000/svg"
   xmlns:sodipodi="http://sodipodi.sourceforge.net/DTD/sodipodi-0.dtd"
   xmlns:inkscape="http://www.inkscape.org/namespaces/inkscape"
   width="297"
   height="419"
   id="svg2"
   version="1.1"
   inkscape:version="0.92.1 r15371"
   sodipodi:docname="html.svg">
  <defs
     id="defs4" />
  <sodipodi:namedview
     id="base"
     pagecolor="#ffffff"
     bordercolor="#666666"
     borderopacity="1.0"
     inkscape:pageopacity="0.0"
     inkscape:pageshadow="2"
     inkscape:zoom="0.7759644"
     inkscape:cx="-21.90616"
     inkscape:cy="178.68231"
     inkscape:document-units="px"
     inkscape:current-layer="layer1"
     showgrid="false"
     fit-margin-top="0"
     fit-margin-left="0"
     fit-margin-right="0"
     fit-margin-bottom="0"
     inkscape:window-width="1366"
     inkscape:window-height="706"
     inkscape:window-x="-8"
     inkscape:window-y="-8"
     inkscape:window-maximized="1"
     inkscape:measure-start="260.619,119.198"
     inkscape:measure-end="119.198,284.863"
     inkscape:snap-page="true"
     inkscape:snap-text-baseline="true"
     inkscape:object-paths="true"
     showguides="false"
     inkscape:guide-bbox="true" />
  <metadata
     id="metadata7">
    <rdf:RDF>
      <cc:Work
         rdf:about="">
        <dc:format>image/svg+xml</dc:format>
        <dc:type
           rdf:resource="http://purl.org/dc/dcmitype/StillImage" />
        <dc:title></dc:title>
      </cc:Work>
    </rdf:RDF>
  </metadata>
  <g
     inkscape:label="Calque 1"
     inkscape:groupmode="layer"
     id="layer1"
     transform="translate(-170.06157,-363.18109)"
     style="display:inline">
    <g
       id="g3054"
       transform="matrix(0.81878179,0,0,0.81835939,-530.31632,351.49025)">
      <polygon
         id="polygon3028"
         points="107.644,470.877 74.633,100.62 437.367,100.62 404.321,470.819 255.778,512 "
         style="fill:#808080"
         transform="translate(780.75717,14.28571)" />
      <polygon
         id="polygon3030"
         points="404.27,130.894 256,130.894 256,480.523 376.03,447.246 "
         style="fill:#999999"
         transform="translate(780.53517,14.28571)" />
      <polygon
         id="polygon3032"
         points="154.38,313.627 256,313.627 256,268.217 195.91,268.217 191.76,221.716 256,221.716 256,176.305 255.843,176.305 142.132,176.305 143.219,188.488 "
         style="fill:#ebebeb"
         transform="translate(780.53517,14.28571)" />
      <polygon
         id="polygon3034"
         points="256,386.153 255.801,386.206 205.227,372.55 201.994,336.333 177.419,336.333 156.409,336.333 162.771,407.634 255.791,433.457 256,433.399 "
         style="fill:#ebebeb"
         transform="translate(780.53517,14.28571)" />
      <path
         id="path3036"
         d="m 888.91717,14.28571 h 23.077 v 22.8 h 21.11 v -22.8 h 23.078 v 69.044 h -23.077 v -23.12 h -21.11 v 23.12 h -23.077 v -69.044 z"
         inkscape:connector-curvature="0"
         style="fill:#333333" />
      <path
         id="path3038"
         d="m 986.52917,37.18171 h -20.316 v -22.896 h 63.72003 v 22.896 h -20.3251 v 46.148 h -23.07793 v -46.148 z"
         inkscape:connector-curvature="0"
         style="fill:#333333" />
      <path
         id="path3040"
         d="m 1040.0462,14.28571 h 24.063 l 14.802,24.26 14.787,-24.26 h 24.072 v 69.044 h -22.982 v -34.222 l -15.877,24.549 h -0.397 l -15.888,-24.549 v 34.222 h -22.58 z"
         inkscape:connector-curvature="0"
         style="fill:#333333" />
      <path
         id="path3042"
         d="m 1129.2552,14.28571 h 23.084 v 46.222 h 32.453 v 22.822 h -55.537 z"
         inkscape:connector-curvature="0"
         style="fill:#333333" />
      <polygon
         id="polygon3044"
         points="255.843,268.217 255.843,313.627 311.761,313.627 306.49,372.521 255.843,386.191 255.843,433.435 348.937,407.634 349.62,399.962 360.291,280.411 361.399,268.217 349.162,268.217 "
         style="fill:#ffffff;fill-opacity:1"
         transform="translate(780.53517,14.28571)" />
      <polygon
         id="polygon3046"
         points="368.511,188.488 369.597,176.305 255.843,176.305 255.843,204.509 255.843,221.605 255.843,221.716 365.385,221.716 365.531,221.716 366.442,211.509 "
         style="fill:#ffffff"
         transform="translate(780.53517,14.28571)" />
    </g>
  </g>
</svg>
