<?xml version="1.0" encoding="UTF-8" standalone="no"?>
<!-- Created with Inkscape (http://www.inkscape.org/) -->

<svg
   xmlns:dc="http://purl.org/dc/elements/1.1/"
   xmlns:cc="http://creativecommons.org/ns#"
   xmlns:rdf="http://www.w3.org/1999/02/22-rdf-syntax-ns#"
   xmlns:svg="http://www.w3.org/2000/svg"
   xmlns="http://www.w3.org/2000/svg"
   xmlns:sodipodi="http://sodipodi.sourceforge.net/DTD/sodipodi-0.dtd"
   xmlns:inkscape="http://www.inkscape.org/namespaces/inkscape"
   width="200mm"
   height="220mm"
   viewBox="0 0 200 220"
   version="1.1"
   id="svg37"
   inkscape:version="0.92.1 r15371"
   sodipodi:docname="jq.svg">
  <defs
     id="defs31" />
  <sodipodi:namedview
     id="base"
     pagecolor="#ffffff"
     bordercolor="#666666"
     borderopacity="1.0"
     inkscape:pageopacity="0.0"
     inkscape:pageshadow="2"
     inkscape:zoom="0.35"
     inkscape:cx="400"
     inkscape:cy="583.31451"
     inkscape:document-units="mm"
     inkscape:current-layer="layer1"
     showgrid="false"
     inkscape:window-width="1366"
     inkscape:window-height="706"
     inkscape:window-x="-8"
     inkscape:window-y="-8"
     inkscape:window-maximized="1" />
  <metadata
     id="metadata34">
    <rdf:RDF>
      <cc:Work
         rdf:about="">
        <dc:format>image/svg+xml</dc:format>
        <dc:type
           rdf:resource="http://purl.org/dc/dcmitype/StillImage" />
        <dc:title></dc:title>
      </cc:Work>
    </rdf:RDF>
  </metadata>
  <g
     inkscape:label="Layer 1"
     inkscape:groupmode="layer"
     id="layer1"
     transform="translate(0,-77)">
    <path
       class="st0"
       d="M 18.638792,186.53765 C 1.0809744,204.92058 2.8709534,229.05798 15.769558,248.855 c 0.315936,0.47135 0.631723,0.94269 0.947622,1.41404 0.210745,0.2947 0.394825,0.60886 0.605425,0.90346 0.105562,0.17661 0.26334,0.33387 0.394863,0.51062 0.183897,0.31433 0.421198,0.60886 0.658093,0.92309 0.394828,0.5499 0.816062,1.09982 1.237186,1.6301 0.210746,0.2947 0.447531,0.58921 0.684428,0.8838 0.473827,0.56957 0.973991,1.13911 1.421486,1.70867 0.210378,0.25545 0.421161,0.49099 0.631759,0.72667 0.65813,0.76596 1.342484,1.53193 2.079581,2.29788 0,0.0199 0.0526,0.0393 0.0526,0.0588 0.105193,0.11781 0.23686,0.23583 0.342049,0.3535 0.631759,0.64813 1.263556,1.29624 1.895314,1.92471 0.263341,0.23582 0.473793,0.45173 0.710725,0.68739 0.579129,0.54995 1.158257,1.09985 1.763683,1.64977 0.210745,0.19624 0.447531,0.41244 0.684427,0.60882 0.789691,0.7267 1.605715,1.43371 2.474406,2.14075 0,0.0199 0.02574,0.0199 0.02574,0.0393 0.02574,0.0393 0.07871,0.0588 0.105563,0.0785 0.815987,0.66774 1.658382,1.33552 2.50074,2.00326 0.263341,0.19659 0.552758,0.41246 0.816025,0.60882 0.658056,0.51067 1.316149,1.00165 2.000578,1.49266 0.289454,0.19624 0.552793,0.39282 0.816024,0.58919 0.895026,0.64811 1.816313,1.27658 2.737673,1.90506 0.02574,0.0199 0.02574,0.0199 0.0526,0.0393 0.158152,0.0982 0.315935,0.19624 0.447532,0.2947 0.816061,0.5499 1.658382,1.0802 2.527075,1.61049 0.315935,0.2162 0.658093,0.41243 1.026586,0.62847 0.684464,0.41244 1.368855,0.82485 2.079616,1.2373 0.342049,0.21587 0.710725,0.43207 1.079219,0.6481 0.763429,0.43206 1.579454,0.84451 2.342846,1.27661 0.289453,0.157 0.552758,0.31432 0.816024,0.47135 0.07871,0.0396 0.158151,0.0785 0.23686,0.11769 0.737058,0.3928 1.500451,0.76596 2.263844,1.13912 0.342049,0.15733 0.658056,0.33389 0.973955,0.49101 1.15822,0.56954 2.342774,1.11944 3.553698,1.6694 0.315936,0.13736 0.631759,0.27508 0.973956,0.43206 0.868691,0.39279 1.763681,0.76596 2.658707,1.13912 0.500163,0.19624 1.00029,0.39281 1.447783,0.58919 0.658095,0.25545 1.26352,0.51063 1.921614,0.76595 0.131303,0.0588 0.289453,0.0981 0.447495,0.15699 0.236859,0.0982 0.500125,0.19624 0.763392,0.2947 1.00029,0.37316 2.000615,0.72666 3.000905,1.0802 0.210378,0.0785 0.42116,0.15732 0.658092,0.21588 1.15822,0.39281 2.342774,0.76597 3.527364,1.13913 0.289455,0.0982 0.579092,0.17662 0.868692,0.25545 1.105552,0.33387 2.237511,0.6481 3.316729,0.96236 0.157783,0.0393 0.289453,0.0785 0.421233,0.11768 1.23715,0.33385 2.474372,0.6481 3.711593,0.94271 0.289453,0.0588 0.579128,0.13736 0.895026,0.19623 1.263519,0.2947 2.500705,0.64814 3.816929,0.84452 83.419427,12.0982 108.453207,-36.54982 108.453207,-36.54982 -20.69034,19.63986 -56.96432,24.56946 -91.15866,18.46147 -1.28981,-0.23583 -2.55337,-0.54991 -3.81689,-0.8445 -0.31594,-0.0785 -0.63176,-0.157 -0.947655,-0.21621 -1.210893,-0.2947 -2.448114,-0.60885 -3.658997,-0.92307 -0.157784,-0.0393 -0.342048,-0.0785 -0.500128,-0.13738 -1.079259,-0.29469 -2.158509,-0.60882 -3.2378,-0.92307 -0.315934,-0.0982 -0.579091,-0.17661 -0.895026,-0.27507 -1.184516,-0.3535 -2.34281,-0.72666 -3.474732,-1.11945 -0.263341,-0.0785 -0.473793,-0.157 -0.710688,-0.23583 -1.000327,-0.35354 -1.974282,-0.68742 -2.948273,-1.06059 -0.289454,-0.0981 -0.579091,-0.19623 -0.868692,-0.31431 -0.763356,-0.2947 -1.526712,-0.60882 -2.290141,-0.90341 -0.500127,-0.21621 -1.00029,-0.39279 -1.500417,-0.60886 -0.921324,-0.37313 -1.816349,-0.76595 -2.737636,-1.15873 -0.289454,-0.13737 -0.605463,-0.25545 -0.895026,-0.39278 -1.210888,-0.5303 -2.395442,-1.09987 -3.579995,-1.64979 -0.315936,-0.15698 -0.631797,-0.33387 -0.947658,-0.49096 -0.842359,-0.41245 -1.684716,-0.84456 -2.527075,-1.27662 -0.289454,-0.13737 -0.552795,-0.2947 -0.789727,-0.43206 -0.816025,-0.4321 -1.605751,-0.88379 -2.395441,-1.3159 -0.368493,-0.19625 -0.710725,-0.39279 -1.052958,-0.60882 -0.737058,-0.43207 -1.447783,-0.86414 -2.132174,-1.29624 -0.315935,-0.19624 -0.658094,-0.39279 -0.973992,-0.58919 -0.89499,-0.56955 -1.789978,-1.13912 -2.685005,-1.72831 -0.07871,-0.0588 -0.183898,-0.1178 -0.289454,-0.19658 -0.947621,-0.64813 -1.868945,-1.29623 -2.816602,-1.94434 -0.26334,-0.19624 -0.52646,-0.39281 -0.78969,-0.58919 -0.684429,-0.49101 -1.368855,-1.00164 -2.000615,-1.51226 -0.289454,-0.19625 -0.552758,-0.39283 -0.816024,-0.60886 -0.81606,-0.64811 -1.658346,-1.31587 -2.474407,-1.98361 -0.0526,-0.0393 -0.105563,-0.0589 -0.105563,-0.0982 -0.868692,-0.70704 -1.684716,-1.4337 -2.50074,-2.18002 -0.23686,-0.19658 -0.447495,-0.3928 -0.684391,-0.5892 -0.579128,-0.56958 -1.184591,-1.13912 -1.790016,-1.70868 -0.23686,-0.19625 -0.447495,-0.41245 -0.658093,-0.62848 -0.73706,-0.70701 -1.42145,-1.3944 -2.079581,-2.12106 -18.74215,-19.5415 -25.165117,-46.33031 -9.634212,-68.13059"
       id="path14"
       inkscape:connector-curvature="0"
       style="opacity:0.5;fill:#333333;stroke-width:2.27374673" />
    <path
       class="st0"
       d="m 68.409391,172.02488 c -12.714302,13.31584 -12.319438,31.28633 -2.790303,45.56453 1.605714,2.39607 3.39573,4.7136 5.422642,6.93288 1.842647,2.02293 3.869558,4.419 6.370337,6.04909 0.894989,0.74631 1.789979,1.47301 2.737636,2.19968 0.263342,0.17662 0.473866,0.3535 0.73706,0.54991 0.921322,0.68738 1.868981,1.35515 2.842972,2.0229 0.0526,0.0199 0.07871,0.0588 0.105551,0.0785 0.02574,0 0.02574,0.0199 0.02574,0.0199 1.052957,0.7267 2.184878,1.41409 3.29043,2.10148 0.263341,0.13737 0.526497,0.2947 0.763431,0.45172 1.131921,0.6481 2.290104,1.31589 3.474657,1.92471 0.02574,0.0199 0.07871,0.0393 0.105551,0.0588 0.526498,0.27508 1.052958,0.54991 1.579419,0.80524 0.263339,0.11768 0.500162,0.25543 0.763429,0.37315 0.842281,0.41245 1.71101,0.82489 2.579666,1.19803 0.131302,0.0588 0.236859,0.11768 0.368529,0.15698 0.763395,0.33392 1.526791,0.64813 2.290187,0.98201 0.26334,0.11781 0.552794,0.21622 0.815978,0.31433 0.526547,0.2162 1.052957,0.43206 1.579467,0.62848 0.0787,0.0393 0.15815,0.0588 0.23686,0.0785 1.10562,0.41245 2.21117,0.82489 3.31676,1.19801 0.23686,0.0785 0.50016,0.157 0.73706,0.23584 0.89499,0.29469 1.81635,0.56957 2.7377,0.8445 0.39483,0.11769 0.78966,0.23583 1.15823,0.33389 0.81599,0.23582 1.65838,0.45171 2.52703,0.66776 0.36857,0.0982 0.73707,0.19624 1.13194,0.27506 1.18454,0.2947 2.36913,0.64815 3.63265,0.82489 64.41387,8.52371 79.86581,-28.41891 79.86581,-28.41891 -13.66192,14.31747 -39.74867,20.97541 -67.44107,15.35839 -1.21089,-0.25544 -2.44811,-0.53029 -3.63267,-0.82488 -0.36852,-0.0785 -0.73705,-0.17662 -1.10559,-0.27508 -0.84236,-0.2162 -1.68471,-0.45172 -2.52706,-0.66776 -0.39483,-0.1178 -0.7634,-0.21586 -1.13189,-0.33388 -0.92133,-0.25544 -1.84269,-0.54991 -2.73768,-0.84451 -0.26333,-0.0785 -0.50012,-0.15699 -0.73706,-0.23582 -1.13192,-0.37317 -2.2638,-0.78561 -3.34306,-1.19802 -0.57912,-0.19624 -1.13195,-0.43211 -1.71105,-0.64813 -0.31593,-0.1178 -0.63175,-0.25545 -0.94766,-0.39279 -0.73705,-0.29469 -1.42152,-0.60885 -2.13221,-0.90345 -0.15814,-0.0785 -0.34205,-0.157 -0.50016,-0.21619 -0.8687,-0.3928 -1.73735,-0.78558 -2.57971,-1.19802 -0.23686,-0.11769 -0.50016,-0.25545 -0.76339,-0.39282 -0.57912,-0.27508 -1.13192,-0.56954 -1.65834,-0.84448 -1.1846,-0.60886 -2.34285,-1.27662 -3.44843,-1.92471 -0.26334,-0.15701 -0.526477,-0.31433 -0.789698,-0.47139 C 87.599203,217.19633 78.122699,207.33714 73.70031,196.22095 69.067357,184.6727 70.304579,171.78893 78.80709,161.37978"
       id="path16"
       inkscape:connector-curvature="0"
       style="opacity:0.5;fill:#333333;stroke-width:2.27374673" />
    <path
       class="st0"
       d="m 116.79951,159.98449 c -7.37061,8.09164 -8.08135,18.12763 -2.97456,27.06379 5.39631,9.48606 16.42589,16.92957 29.32449,20.46473 0.52646,0.13738 1.05288,0.27508 1.60572,0.41246 0.23685,0.0588 0.47386,0.11781 0.68442,0.17661 0.76335,0.17662 1.52675,0.39283 2.31644,0.49102 35.6422,5.14563 45.30294,-13.64973 47.85635,-16.39933 -8.44989,9.09328 -22.69094,11.2733 -40.14353,8.11126 -1.36882,-0.25543 -2.89561,-0.60882 -4.21175,-0.96232 -1.68472,-0.45172 -3.3694,-0.96236 -5.02781,-1.55154 -3.10617,-1.09987 -6.05441,-2.45502 -8.79209,-4.00656 -15.63616,-8.83793 -25.3233,-25.7086 -15.13607,-39.45651"
       id="path18"
       inkscape:connector-curvature="0"
       style="opacity:0.5;fill:#333333;stroke-width:2.27374673" />
    <text
       xml:space="preserve"
       style="font-style:normal;font-weight:normal;font-size:42.54218674px;line-height:1.25;font-family:sans-serif;letter-spacing:0px;word-spacing:0px;fill:#333333;fill-opacity:1;stroke:none;stroke-width:1.06355464"
       x="68.292938"
       y="90.906784"
       id="text55"
       transform="scale(0.72315374,1.3828318)"><tspan
         sodipodi:role="line"
         id="tspan53"
         x="68.292938"
         y="90.906784"
         style="font-style:normal;font-variant:normal;font-weight:normal;font-stretch:normal;font-family:font102;-inkscape-font-specification:font102;fill:#333333;stroke-width:1.06355464">jQuery</tspan></text>
  </g>
</svg>
