<?xml version="1.0" encoding="UTF-8" standalone="no"?>
<svg
   xmlns:dc="http://purl.org/dc/elements/1.1/"
   xmlns:cc="http://creativecommons.org/ns#"
   xmlns:rdf="http://www.w3.org/1999/02/22-rdf-syntax-ns#"
   xmlns:svg="http://www.w3.org/2000/svg"
   xmlns="http://www.w3.org/2000/svg"
   xmlns:sodipodi="http://sodipodi.sourceforge.net/DTD/sodipodi-0.dtd"
   xmlns:inkscape="http://www.inkscape.org/namespaces/inkscape"
   width="297"
   height="419"
   viewBox="0 0 297 419"
   version="1.1"
   id="svg13"
   sodipodi:docname="js.svg"
   inkscape:version="0.92.1 r15371">
  <metadata
     id="metadata19">
    <rdf:RDF>
      <cc:Work
         rdf:about="">
        <dc:format>image/svg+xml</dc:format>
        <dc:type
           rdf:resource="http://purl.org/dc/dcmitype/StillImage" />
        <dc:title></dc:title>
      </cc:Work>
    </rdf:RDF>
  </metadata>
  <defs
     id="defs17" />
  <sodipodi:namedview
     pagecolor="#ffffff"
     bordercolor="#666666"
     borderopacity="1"
     objecttolerance="10"
     gridtolerance="10"
     guidetolerance="10"
     inkscape:pageopacity="0"
     inkscape:pageshadow="2"
     inkscape:window-width="1366"
     inkscape:window-height="706"
     id="namedview15"
     showgrid="false"
     inkscape:zoom="0.79465333"
     inkscape:cx="-38.741563"
     inkscape:cy="216.66821"
     inkscape:window-x="-8"
     inkscape:window-y="-8"
     inkscape:window-maximized="1"
     inkscape:current-layer="svg13" />
  <style
     type="text/css"
     id="style2"><![CDATA[
	.st0{fill:#EBEBEB;}
	.st1{fill:#8ACF17;}
	.st2{fill:#FFFFFF;}
	.st3{fill:#63A814;}
]]></style>
  <path
     class="st3"
     d="M 27,385 0,81 h 298 l -27,304 -122,34 z"
     id="path4"
     inkscape:connector-curvature="0"
     style="fill:#808080" />
  <path
     class="st1"
     d="M 149,392.84 247.48,365.54 270.68,106 H 149 Z"
     id="path6"
     inkscape:connector-curvature="0"
     style="fill:#999999" />
  <path
     id="J_1_"
     class="st2"
     d="m 55.476,144 3.33,37 h 142.38 L 190.5,304.86 148.86,316.088 107.312,304.885 104.655,275 h -37.45 l 5.227,58.664 76.392,21.26 76.55,-21.26 L 242.348,144 Z"
     inkscape:connector-curvature="0"
     style="fill:#ffffff" />
  <path
     class="st0"
     d="M 148.86,316.088 107.312,304.885 104.655,275 h -37.45 l 5.227,58.664 76.568,21.26 z M 58.805,181 H 149 V 144 H 55.476 Z"
     id="path9"
     inkscape:connector-curvature="0"
     style="fill:#ebebeb" />
  <path
     d="m 122.07,-1 v 36 h -31 v 20 h 52 V -1 Z m 31,0 V 19.847 L 175.972,37 H 153.07 v 18 h 53 V 36.876 L 180.407,17 H 206.07 V -1 Z"
     id="path11"
     inkscape:connector-curvature="0"
     style="fill:#333333" />
</svg>
