<?xml version="1.0" encoding="UTF-8" standalone="no"?>
<svg
   xmlns:dc="http://purl.org/dc/elements/1.1/"
   xmlns:cc="http://creativecommons.org/ns#"
   xmlns:rdf="http://www.w3.org/1999/02/22-rdf-syntax-ns#"
   xmlns:svg="http://www.w3.org/2000/svg"
   xmlns="http://www.w3.org/2000/svg"
   xmlns:sodipodi="http://sodipodi.sourceforge.net/DTD/sodipodi-0.dtd"
   xmlns:inkscape="http://www.inkscape.org/namespaces/inkscape"
   version="1.0"
   width="370pt"
   height="160pt"
   viewBox="0 0 370 160"
   preserveAspectRatio="xMidYMid meet"
   id="svg12"
   sodipodi:docname="node.svg"
   inkscape:version="0.92.1 r15371">
  <defs
     id="defs16" />
  <sodipodi:namedview
     pagecolor="#ffffff"
     bordercolor="#666666"
     borderopacity="1"
     objecttolerance="10"
     gridtolerance="10"
     guidetolerance="10"
     inkscape:pageopacity="0"
     inkscape:pageshadow="2"
     inkscape:window-width="1366"
     inkscape:window-height="706"
     id="namedview14"
     showgrid="false"
     inkscape:zoom="1.3244792"
     inkscape:cx="356.8223"
     inkscape:cy="72.05159"
     inkscape:window-x="-8"
     inkscape:window-y="-8"
     inkscape:window-maximized="1"
     inkscape:current-layer="svg12" />
  <metadata
     id="metadata2">
Created by potrace 1.13, written by Peter Selinger 2001-2015
<rdf:RDF>
  <cc:Work
     rdf:about="">
    <dc:format>image/svg+xml</dc:format>
    <dc:type
       rdf:resource="http://purl.org/dc/dcmitype/StillImage" />
    <dc:title></dc:title>
  </cc:Work>
</rdf:RDF>
</metadata>
  <g
     transform="matrix(0.1257176,0,0,-0.12473806,3.2194655,171.41594)"
     id="g10"
     style="fill:#000000;stroke:none">
    <path
       d="m 1515.5409,1348.6312 c -2.0225,-1.517 -3.5395,-74.3303 -3.5395,-160.796 0,-86.4658 -1.5169,-159.2791 -3.0339,-160.796 -2.0226,-2.0226 -18.2033,5.0565 -35.901,15.1694 -29.3275,16.1808 -33.8784,17.192 -46.0139,11.6299 -23.7655,-10.6186 -198.7196,-112.25383 -206.3043,-119.83853 -9.6073,-10.113 -10.6186,-248.27305 -0.5056,-260.4086 7.079,-9.10166 208.8325,-125.40064 217.4285,-125.40064 7.5847,0 208.3269,114.27639 218.4398,124.38935 6.5734,6.57342 7.5847,45.5083 7.5847,301.87169 0,161.80733 -2.0226,296.81533 -4.0451,300.35483 -4.5509,7.5847 -126.9176,77.3641 -135.5136,77.3641 -3.0339,0 -7.0791,-1.5169 -8.5961,-3.5395 z m -37.9235,-481.88243 34.384,-20.7315 v -42.4744 -42.47443 l -36.4066,-21.23721 -36.4067,-21.2372 -36.9123,19.72026 -36.9122,19.72026 v 45.50832 l 0.5056,45.5083 31.3502,18.2033 c 17.192,10.6186 34.384,12.9824 38.4292,13.488 4.0452,0.5057 22.7541,-2.8694 41.9688,-13.9937 z"
       id="path4"
       inkscape:connector-curvature="0"
       sodipodi:nodetypes="cssccccssscsccccccccccccsc"
       style="fill:#333333;fill-opacity:1;stroke-width:0.50564778" />
    <path
       d="M 140.6888,964.79927 C 89.112727,934.96607 40.570542,906.64977 32.985826,901.59327 l -13.65249,-8.596 V 728.15611 c 0,-139.55878 1.011296,-164.33552 7.584716,-166.86376 9.10166,-3.53953 132.479718,66.23986 139.053138,78.88105 3.03389,5.05648 5.05648,45.00265 5.05648,88.48836 v 78.88101 l 31.85581,19.7203 c 17.19202,11.1243 34.88969,20.2259 38.93487,20.2259 4.04519,0 22.24851,-8.596 40.45183,-19.2146 l 32.8671,-18.709 2.52824,-86.97138 c 1.51694,-47.53089 3.53953,-87.98271 5.05648,-88.99401 7.58471,-7.58472 128.43453,-74.33022 134.5023,-74.33022 3.53954,0 8.09037,5.05648 9.60731,11.6299 1.51694,6.06777 2.52824,81.40929 1.51694,166.86376 -1.51694,131.97405 -2.52824,156.75085 -9.10166,160.79595 -61.18338,37.418 -210.85511,120.84993 -216.92289,120.84993 -4.55083,-0.5057 -50.05913,-24.77683 -101.6352,-54.61003 z"
       id="path6"
       inkscape:connector-curvature="0"
       style="opacity:0.98999999;fill:#333333;fill-opacity:1;stroke-width:0.50564778" />
    <path
       d="m 1979.7256,1033.107 c -111.2425,-63.20603 -163.3242,-95.56753 -166.3581,-103.15223 -1.517,-4.5508 -3.0339,-61.1834 -3.0339,-125.9063 0,-85.96009 1.5169,-119.83849 6.5734,-125.40062 7.0791,-9.60731 208.8325,-125.40064 217.4285,-125.40064 12.6412,0.50565 137.5362,73.82457 137.5362,80.90364 0,4.55083 -44.497,32.8671 -106.186,68.26245 l -106.186,61.18337 v 42.4744 42.9801 l 36.9123,21.7428 36.9123,22.2485 37.4179,-21.7428 37.4179,-21.2372 1.517,-35.901 c 1.0113,-27.8106 3.0339,-35.901 9.6073,-37.418 9.6073,-1.5169 119.3328,61.1834 132.4797,75.8472 10.6186,12.1356 12.1355,68.2625 2.5282,81.4093 -3.5395,4.5508 -43.9913,29.8332 -90.0053,56.6326 -100.6239,59.16073 -118.3216,68.26243 -130.4571,68.26243 -5.0565,0 -29.3276,-11.6299 -54.1043,-25.788 z"
       id="path8"
       style="fill:#333333;fill-opacity:1;stroke-width:0.50564778"
       inkscape:connector-curvature="0" />
  </g>
  <path
     sodipodi:type="star"
     style="fill:#82cd29;fill-opacity:1;stroke-width:0.75"
     id="path22"
     sodipodi:sides="6"
     sodipodi:cx="129.7317"
     sodipodi:cy="-17.178862"
     sodipodi:r1="47.572605"
     sodipodi:r2="38.487045"
     sodipodi:arg1="0.94076242"
     sodipodi:arg2="1.4643612"
     inkscape:flatsided="true"
     inkscape:rounded="0"
     inkscape:randomized="0"
     d="m 157.76016,21.260162 -47.3034,5.053841 -28.028453,-38.439023 19.274943,-43.492865 47.3034,-5.053842 28.02845,38.439024 z"
     inkscape:transform-center-x="-2.8592724"
     inkscape:transform-center-y="0.27404733"
     transform="matrix(-0.06465145,0.62746475,-0.63239204,-0.06414772,105.64746,-10.948731)" />
  <path
     sodipodi:type="star"
     style="fill:#82cd29;fill-opacity:1;stroke-width:0.75"
     id="path22-3"
     sodipodi:sides="6"
     sodipodi:cx="129.7317"
     sodipodi:cy="-17.178862"
     sodipodi:r1="47.572605"
     sodipodi:r2="38.487045"
     sodipodi:arg1="0.94076242"
     sodipodi:arg2="1.4643612"
     inkscape:flatsided="true"
     inkscape:rounded="0"
     inkscape:randomized="0"
     d="m 157.76016,21.260162 -47.3034,5.053841 -28.028453,-38.439023 19.274943,-43.492865 47.3034,-5.053842 28.02845,38.439024 z"
     inkscape:transform-center-x="-2.9907389"
     inkscape:transform-center-y="0.28558445"
     transform="matrix(-0.06762392,0.65387111,-0.66146741,-0.06684733,338.21519,-15.014394)" />
  <path
     sodipodi:type="star"
     style="fill:#ddddee;fill-opacity:1;stroke-width:0.74999994"
     id="path852"
     sodipodi:sides="6"
     sodipodi:cx="528.01624"
     sodipodi:cy="108.78873"
     sodipodi:r1="40.927734"
     sodipodi:r2="35.444458"
     sodipodi:arg1="-0.53370819"
     sodipodi:arg2="-0.010109416"
     inkscape:flatsided="true"
     inkscape:rounded="0"
     inkscape:randomized="0"
     d="m 563.25201,87.967589 0.41375,40.925641 -35.23578,20.82114 -35.64952,-20.10451 -0.41375,-40.925638 35.23578,-20.821138 z"
     transform="matrix(0.63563603,0.00808134,-0.0081448,0.63068347,6.0545535,-1.5126565)" />
  <path
     style="fill:#ddddee;fill-opacity:1;stroke-width:0.47490516"
     id="path854"
     d="m 267.79223,104.75739 c 1.10211,-0.61436 2.27132,-1.11897 3.40592,-1.65982 0,0 -2.35345,1.13891 -2.35345,1.13891 v 0 c 3.68133,-1.81841 2.13327,-1.08467 1.33812,-0.63599 0,0 -2.39059,1.1569 -2.39059,1.1569 z"
     inkscape:connector-curvature="0" />
  <path
     style="fill:#83cd20;fill-opacity:0;stroke-width:0.47490516"
     id="path858"
     d="m 290.3616,70.755807 c 2.76426,1.822818 5.74385,3.292058 8.65555,4.863978 2.63272,1.50227 5.30938,2.92658 7.97252,4.3746 0,0 -2.11627,1.02414 -2.11627,1.02414 v 0 c -2.57941,-1.52673 -5.19178,-2.99589 -7.81219,-4.4522 -0.78663,-0.41414 -1.56892,-0.8365 -2.3599,-1.2424 -2.23771,-1.14835 -4.53254,-2.18445 -6.72872,-3.412 0,0 2.38901,-1.156118 2.38901,-1.156118 z"
     inkscape:connector-curvature="0" />
  <rect
     style="fill:#ddddee;fill-opacity:1;stroke:none;stroke-width:0.61158472;stroke-linecap:square;stroke-opacity:1"
     id="rect882"
     width="5.666862"
     height="7.4498177"
     x="312.23465"
     y="-117.81878"
     rx="1.1220894"
     ry="1.1206658"
     transform="matrix(0.81956367,0.57298813,-0.65373658,0.75672219,0,0)" />
  <text
     xml:space="preserve"
     style="font-style:normal;font-variant:normal;font-weight:bold;font-stretch:normal;font-size:28.36470032px;line-height:1.25;font-family:font227;-inkscape-font-specification:'font227, Bold';font-variant-ligatures:normal;font-variant-caps:normal;font-variant-numeric:normal;text-align:start;letter-spacing:0px;word-spacing:0px;writing-mode:lr-tb;text-anchor:start;fill:#83cd29;fill-opacity:1;stroke:none;stroke-width:0.70911759"
     x="421.13947"
     y="67.478081"
     id="text910"
     transform="scale(0.80949787,1.2353337)"><tspan
       sodipodi:role="line"
       id="tspan908"
       x="421.13947"
       y="67.478081"
       style="font-style:normal;font-variant:normal;font-weight:bold;font-stretch:normal;font-family:font228;-inkscape-font-specification:'font228 Bold';fill:#83cd29;fill-opacity:1;stroke-width:0.70911759">S</tspan></text>
  <text
     xml:space="preserve"
     style="font-style:normal;font-variant:normal;font-weight:bold;font-stretch:normal;font-size:25.41265106px;line-height:1.25;font-family:font227;-inkscape-font-specification:'font227, Bold';font-variant-ligatures:normal;font-variant-caps:normal;font-variant-numeric:normal;text-align:start;letter-spacing:0px;word-spacing:0px;writing-mode:lr-tb;text-anchor:start;fill:#83cd29;fill-opacity:1;stroke:none;stroke-width:0.63531625"
     x="618.1344"
     y="49.383671"
     id="text914"
     transform="scale(0.5367694,1.8629974)"><tspan
       sodipodi:role="line"
       id="tspan912"
       x="618.1344"
       y="49.383671"
       style="fill:#83cd29;fill-opacity:1;stroke-width:0.63531625">J</tspan></text>
  <rect
     style="fill:#83cd29;fill-opacity:1;stroke:none;stroke-width:0.57296342;stroke-linecap:square;stroke-opacity:1"
     id="rect916"
     width="9.5070639"
     height="4.9863348"
     x="264.01733"
     y="210.25285"
     rx="1.1325048"
     ry="1.1325045"
     transform="matrix(0.92146384,-0.38846415,0.39364623,0.91926201,0,0)" />
  <rect
     style="fill:#ddddee;fill-opacity:1;stroke:none;stroke-width:0.12920813;stroke-linecap:square;stroke-opacity:1"
     id="rect918"
     width="4.0268283"
     height="1.0788653"
     x="231.13524"
     y="303.68448"
     rx="1.1057655"
     ry="1.1061118"
     transform="matrix(0.70189626,-0.71227919,0.55727153,0.83033032,0,0)" />
  <rect
     style="fill:#ddddee;fill-opacity:1;stroke:none;stroke-width:0.12920813;stroke-linecap:square;stroke-opacity:1"
     id="rect918-6"
     width="4.0268283"
     height="1.0788654"
     x="231.13524"
     y="302.60565"
     rx="1.1057655"
     ry="1.1061118"
     transform="matrix(0.70189626,-0.71227919,0.55727152,0.83033033,0,0)" />
  <rect
     style="fill:#ddddee;fill-opacity:1;stroke:none;stroke-width:0.12920813;stroke-linecap:square;stroke-opacity:1"
     id="rect918-3"
     width="4.0268283"
     height="1.0788654"
     x="231.48373"
     y="301.91333"
     rx="1.1057655"
     ry="1.1061118"
     transform="matrix(0.70189626,-0.71227919,0.55727152,0.83033033,0,0)" />
  <path
     sodipodi:type="star"
     style="fill:#82cd29;fill-opacity:1;stroke:none;stroke-width:0.75;stroke-linecap:square;stroke-opacity:1"
     id="path951"
     sodipodi:sides="6"
     sodipodi:cx="400.37073"
     sodipodi:cy="107.57103"
     sodipodi:r1="11.325206"
     sodipodi:r2="9.8079166"
     sodipodi:arg1="0.64350111"
     sodipodi:arg2="1.1670999"
     inkscape:flatsided="true"
     inkscape:rounded="0"
     inkscape:randomized="0"
     d="m 409.43089,114.36615 -10.41483,4.44877 -9.06016,-6.79512 1.35466,-11.24389 10.41483,-4.448775 9.06017,6.795125 z"
     transform="matrix(0.60503412,-0.06639205,0.07280304,0.55175515,8.9524995,37.915483)" />
  <rect
     style="fill:#ddddee;fill-opacity:1;stroke:none;stroke-width:0.47490516;stroke-linecap:square;stroke-opacity:1"
     id="rect953"
     width="4.4095712"
     height="9.6433287"
     x="331.2692"
     y="56.783436"
     rx="1.12212"
     ry="1.1207025" />
  <path
     style="opacity:0.98999999;fill:#4d4d4d;fill-opacity:1;stroke:none;stroke-width:0.80081302;stroke-linecap:square;stroke-opacity:1"
     d="m 52.16578,96.800465 -8.085255,-4.51563 -0.572019,-11.10231 -0.572018,-11.102292 -4.099366,-2.351212 c -2.254651,-1.293168 -4.544409,-2.354595 -5.08835,-2.358727 -0.543943,-0.0042 -2.752997,1.077892 -4.90901,2.404499 l -3.920024,2.412015 -0.578065,10.792977 -0.578066,10.79299 -4.523088,2.71911 c -5.680857,3.41511 -11.0135305,6.106665 -12.0989075,6.106665 -0.554563,0 -0.832716,-6.796635 -0.832716,-20.347405 V 59.90374 l 13.6320565,-7.764763 13.632059,-7.764764 12.594568,6.936483 c 6.927013,3.815066 13.225209,7.676502 13.995991,8.580968 1.251228,1.46824 1.401423,3.732637 1.401423,21.128421 0,10.71618 -0.295641,19.666655 -0.656979,19.889975 -0.361339,0.22332 -4.295344,-1.625995 -8.742234,-4.109595 z"
     id="path1101"
     inkscape:connector-curvature="0" />
  <path
     style="opacity:0.98999999;fill:#4d4d4d;fill-opacity:1;stroke:none;stroke-width:0.80081302;stroke-linecap:square;stroke-opacity:1"
     d="m 174.15473,97.365215 c -14.74273,-8.24645 -16.9938,-9.88556 -17.57633,-12.79818 -0.65765,-3.28825 -0.66012,-22.639124 -0.004,-26.612296 0.47671,-2.884061 0.93041,-3.254291 11.40278,-9.305028 17.10114,-9.880718 15.40305,-9.298978 20.13878,-6.899202 2.22255,1.126251 4.38785,1.833361 4.81178,1.571355 0.45974,-0.284135 0.77079,-8.355721 0.77079,-20.001768 0,-10.738968 0.29786,-19.7094815 0.66191,-19.9344735 0.7341,-0.453706 14.25726,6.9012855 16.15516,8.7864975 1.01903,1.012207 1.24088,6.077896 1.46271,33.398223 0.14382,17.71277 0.0328,34.384302 -0.24656,37.047852 l -0.50806,4.84281 -12.46616,7.09933 c -6.8564,3.90463 -13.23203,7.232225 -14.16807,7.394655 -1.01595,0.17629 -5.22191,-1.67362 -10.43533,-4.589775 z m 14.73953,-17.87244 4.40447,-2.62473 0.23466,-5.721679 0.23466,-5.721684 -4.0119,-2.032983 c -5.04672,-2.557367 -7.43508,-2.556799 -11.80271,0.0028 l -3.47382,2.035792 v 5.780787 5.780797 l 4.60468,2.57525 c 2.53257,1.41639 4.78485,2.56965 5.00508,2.56281 0.22022,-0.007 2.38242,-1.19357 4.80488,-2.63716 z"
     id="path1103"
     inkscape:connector-curvature="0" />
  <path
     style="opacity:0.98999999;fill:#4d4d4d;fill-opacity:1;stroke:none;stroke-width:0.80081302;stroke-linecap:square;stroke-opacity:1"
     d="m 250.48447,97.461535 c -4.58488,-2.54797 -10.67852,-6.068 -13.54143,-7.8223 l -5.20529,-3.18962 V 70.901116 55.352617 l 4.40448,-2.92456 c 2.42245,-1.608508 8.36849,-5.133222 13.21341,-7.832699 6.55117,-3.650165 9.30773,-4.785976 10.75502,-4.4315 1.83324,0.449003 21.8714,11.759312 25.23578,14.244047 1.21964,0.90075 1.54194,2.070865 1.49149,5.41488 -0.0548,3.629259 -0.38551,4.521909 -2.21649,5.981883 -2.15301,1.716745 -14.18683,8.367057 -15.1403,8.367057 -0.27807,0 -0.50558,-1.96475 -0.50558,-4.366112 v -4.36611 l -4.84779,-2.841208 c -2.66628,-1.562664 -5.05161,-2.841207 -5.30073,-2.841207 -0.24912,0 -2.57219,1.287372 -5.16237,2.860827 l -4.70943,2.860827 v 5.350794 5.350789 l 11.74769,6.80363 c 6.46123,3.74199 12.46568,7.37677 13.34321,8.07728 1.55367,1.24026 1.50287,1.33719 -1.93774,3.69739 -1.94328,1.33307 -5.72802,3.52891 -8.41052,4.87966 l -4.87727,2.455905 z"
     id="path1105"
     inkscape:connector-curvature="0" />
</svg>
